<svg xmlns="http://www.w3.org/2000/svg" viewBox="0 0 1024 1024" fill="currentColor">
  <g transform="translate(0.000000,1024.000000) scale(0.100000,-0.100000)" fill="currentColor" stroke="none">
    <path d="M4560 7955 c261 -24 779 -72 1150 -105 371 -33 685 -63 698 -66 l22 -4 0 -313 0 -312 -131 -120 c-72 -66 -141 -128 -153 -138 -22 -18 -32 -18 -322 2 -164 12 -337 23 -384 26 -141 9 -229 15 -360 25 -69 5 -133 9 -142 10 -17 0 -18 -35 -18 -588 l0 -589 -347 -300 c-192 -164 -383 -330 -426 -368 -43 -37 -79 -66 -81 -64 -3 2 -6 632 -7 1399 -2 767 -6 1416 -9 1442 -4 26 -3 49 2 50 5 2 3 11 -4 20 -12 16 -19 15 -97 -16 -46 -19 -79 -30 -74 -25 12 12 173 77 193 78 8 0 229 -19 490 -44z m624 -1232 c84 -71 210 -175 280 -232 70 -57 124 -106 119 -110 -90 -74 -149 -124 -248 -212 -160 -141 -288 -249 -296 -249 -3 0 -5 12 -2 28 3 23 2 24 -6 7 -9 -19 -10 -19 -10 3 -1 12 4 22 9 22 6 0 10 17 10 38 -1 32 -2 34 -8 12 -8 -27 -22 127 -19 209 l1 46 7 -45 c4 -27 7 22 7 120 0 109 -3 145 -7 105 -4 -40 -7 5 -9 135 -2 107 -5 207 -7 223 -3 20 -1 27 11 27 8 0 84 -57 169 -127z m-167 -355 c-3 -7 -5 -2 -5 12 0 14 2 19 5 13 2 -7 2 -19 0 -25z m0 -70 c-3 -7 -5 -2 -5 12 0 14 2 19 5 13 2 -7 2 -19 0 -25z m1416 -620 c2 -40 3 -660 3 -1378 l-1 -1305 -315 0 c-391 1 -2044 16 -2047 19 -1 1 -3 140 -3 309 -1 169 -4 307 -8 307 -19 -1 -149 -21 -166 -26 -10 -3 -17 -2 -15 3 2 6 90 85 195 176 l192 166 78 18 c92 21 256 23 872 10 330 -7 382 -6 382 7 0 8 -5 16 -11 18 -7 2 -7 12 1 32 9 23 8 27 -4 23 -8 -3 -17 0 -20 8 -3 9 0 12 10 8 12 -4 15 0 13 18 -2 13 0 30 4 37 5 7 3 12 -4 12 -7 0 -4 7 7 15 10 8 13 15 7 15 -9 0 -10 7 -2 27 8 21 16 613 9 673 -1 8 1 43 5 77 11 89 7 94 -55 78 -28 -7 -57 -18 -64 -24 -7 -6 -15 -8 -19 -5 -3 3 -15 1 -26 -6 -43 -23 -18 10 72 91 50 47 202 183 337 304 135 120 260 232 277 248 22 21 72 44 155 73 68 24 126 43 130 43 3 1 8 -32 11 -71z m-923 -1000 c0 -144 -2 -259 -5 -257 -2 3 -5 104 -6 225 0 122 -5 227 -9 234 -11 19 -29 6 -190 -139 -74 -66 -138 -121 -142 -121 -5 0 61 62 144 139 84 76 162 148 172 160 11 11 23 21 28 21 4 0 8 -118 8 -262z m-120 52 c0 -5 -5 -10 -11 -10 -5 0 -7 5 -4 10 3 6 8 10 11 10 2 0 4 -4 4 -10z m-281 -157 c-65 -55 -83 -64 -29 -15 30 27 57 48 59 46 2 -2 -11 -16 -30 -31z m398 -230 c-2 -16 -4 -5 -4 22 0 28 2 40 4 28 2 -13 2 -35 0 -50z m-107 6 c0 -6 -4 -7 -10 -4 -5 3 -10 11 -10 16 0 6 5 7 10 4 6 -3 10 -11 10 -16z" />
    <path d="M5022 6770 c0 -14 2 -19 5 -12 2 6 2 18 0 25 -3 6 -5 1 -5 -13z" />
    <path d="M5022 6720 c0 -14 2 -19 5 -12 2 6 2 18 0 25 -3 6 -5 1 -5 -13z" />
  </g>
</svg>

